HIERARCHY
ROOT Hips
{
  OFFSET 0 0 0
  CHANNELS 6 Xposition Yposition Zposition Zrotation Yrotation Xrotation
  JOINT LeftThigh
  {
    OFFSET 8.409438 0 -5.917753
    CHANNELS 3 Zrotation Yrotation Xrotation
    JOINT LeftLeg
    {
      OFFSET 0 0 -42.358652
      CHANNELS 3 Zrotation Yrotation Xrotation
      JOINT LeftFoot
      {
        OFFSET 0 0 -39.357303
        CHANNELS 3 Zrotation Yrotation Xrotation
      }
    }
  }
  JOINT RightThigh
  {
    OFFSET -8.409438 0 -5.917753
    CHANNELS 3 Zrotation Yrotation Xrotation
    JOINT RightLeg
    {
      OFFSET 0 0 -42.358652
      CHANNELS 3 Zrotation Yrotation Xrotation
      JOINT RightFoot
      {
        OFFSET 0 0 -39.357303
        CHANNELS 3 Zrotation Yrotation Xrotation
      }
    }
  }
  JOINT SpineLow
  {
    OFFSET 0 0 4.719101
    CHANNELS 3 Zrotation Yrotation Xrotation
    JOINT SpineMid
    {
      OFFSET 0 0 12.899191
      CHANNELS 3 Zrotation Yrotation Xrotation
      JOINT Chest
      {
        OFFSET 0 0 12.899191
        CHANNELS 3 Zrotation Yrotation Xrotation
        JOINT LeftShoulder
        {
          OFFSET 7.550562 1.41573 9.438202
          CHANNELS 3 Zrotation Yrotation Xrotation
          JOINT LeftArm
          {
            OFFSET 9.155056 0 4.247191
            CHANNELS 3 Zrotation Yrotation Xrotation
            JOINT LeftForearm
            {
              OFFSET 0 0 25.771955
              CHANNELS 3 Zrotation Yrotation Xrotation
              JOINT LeftHand
              {
                OFFSET 0 0 25.197169
                CHANNELS 3 Zrotation Yrotation Xrotation
              }
            }
          }
        }
        JOINT RightShoulder
        {
          OFFSET -7.550562 1.41573 9.438202
          CHANNELS 3 Zrotation Yrotation Xrotation
          JOINT RightArm
          {
            OFFSET -9.155056 0 4.247191
            CHANNELS 3 Zrotation Yrotation Xrotation
            JOINT RightForearm
            {
              OFFSET 0 0 -25.771955
              CHANNELS 3 Zrotation Yrotation Xrotation
              JOINT RightHand
              {
                OFFSET 0 0 -25.197169
                CHANNELS 3 Zrotation Yrotation Xrotation
              }
            }
          }
        }
        JOINT Neck
        {
          OFFSET 0 0 15.101124
          CHANNELS 3 Zrotation Yrotation Xrotation
          JOINT Head
          {
            OFFSET 0 0 11.325843
            CHANNELS 3 Zrotation Yrotation Xrotation
            End Site
            {
              OFFSET 0 0 14.157303
            }
          }
        }
      }
    }
  }
}
MOTION
Frames: 7
Frame Time: 0.0
0.0  93.25843  0.0  -2.766041  17.283595  -85.16014  -19.486067  -22.215415  -26.721337  4.754968  0.704574  35.639109  11.647211  3.629525  10.384887  -39.164735  -2.251363  -23.612995  -14.527001  22.184927  31.118743  19.209204  9.158854  -1.470086  5.320265  0.160853  -0.724013  14.536449  0.595911  -1.93281  14.536448  0.595911  -1.932809  13.747576  22.141309  12.984151  -172.520248  27.142784  -178.977439  -1.945555  32.185968  105.669427  79.809141  -47.943248  -26.418054  9.25602  5.823929  17.739463  -179.324517  49.992512  155.913212  -39.74707  4.991088  -124.624171  99.501703  31.48748  17.149271  -25.657302  -2.109354  3.257676  -19.230243  -1.722564  2.359248  
0.0  93.25843  0.0  -2.78993  16.498548  -85.349942  -19.099431  -22.27009  -26.476081  5.077789  0.807039  35.922102  11.775292  3.700643  10.341154  -39.20664  -2.527993  -23.682786  -13.67779  22.365886  31.345949  19.18993  9.183175  -1.485955  5.259288  0.103597  -0.72111  14.371364  0.43789  -1.937957  14.371363  0.43789  -1.937957  13.796843  22.218318  13.342616  -172.507747  26.814886  -179.213663  -2.088769  31.979955  105.560184  79.822335  -48.079207  -26.853362  9.144248  5.660893  18.135767  -179.005679  50.834584  156.040429  -39.927858  4.84941  -124.657294  98.724924  31.687343  17.252436  -25.573318  -2.100122  3.215352  -19.167456  -1.713374  2.328091  
0.0  93.25843  0.0  -2.907882  15.759715  -85.616944  -18.601318  -22.324474  -26.108481  5.504716  0.776746  36.133028  11.872166  3.801818  10.379899  -39.382805  -2.876649  -23.569629  -12.568718  22.458259  31.547537  19.33033  9.242293  -1.481804  5.204509  0.043255  -0.702135  14.223437  0.268189  -1.899747  14.223437  0.268189  -1.899748  13.677682  22.276692  13.523421  -172.540643  26.503298  -179.446854  -2.226778  31.778532  105.388751  79.870539  -48.153272  -27.232465  8.905935  5.436035  18.35317  -178.9503  51.880008  156.046107  -40.354519  4.856182  -124.57642  97.885623  31.778375  17.502448  -25.525667  -2.138079  3.119191  -19.131739  -1.737604  2.254373  
0.0  93.25843  0.0  -3.083506  15.01304  -85.922534  -18.058045  -22.332933  -25.676121  5.883749  0.655342  36.205363  11.836555  3.805611  10.314578  -39.553662  -3.182126  -23.354717  -11.73524  22.4981  31.558512  19.334514  9.233682  -1.475388  5.1331  -0.012384  -0.678811  14.0299  0.109935  -1.848492  14.029901  0.109935  -1.848492  13.555825  22.30939  13.62292  -172.694827  26.182965  -179.69512  -2.366309  31.474066  105.257075  80.294053  -47.944965  -27.881226  8.52779  5.163106  18.416513  -178.961434  53.113334  155.880346  -41.081169  5.051839  -124.36649  96.859727  31.812005  17.734522  -25.457903  -2.199541  3.013014  -19.080819  -1.778989  2.172211  
0.0  93.25843  0.0  -3.265446  14.169069  -86.317145  -17.219736  -22.247274  -25.041841  7.207527  0.089826  37.070342  10.722334  3.730333  9.348578  -39.31612  -3.310198  -22.941419  -9.383676  22.208938  32.088469  17.853745  8.660758  -1.683973  5.067933  -0.071329  -0.635064  13.853467  -0.061314  -1.742038  13.853468  -0.061314  -1.742038  13.397489  22.344925  13.640114  -172.988625  25.863354  -179.947341  -2.525305  30.95426  105.170266  81.058191  -47.196147  -28.831448  8.136923  4.847392  18.412003  -179.135996  54.51887  155.623046  -42.007218  5.383532  -124.115403  95.60541  31.737056  17.829787  -25.246443  -2.281976  2.937497  -18.921907  -1.836701  2.112715  
0.0  93.25843  0.0  -3.443727  13.350052  -86.728793  -16.400298  -22.115232  -24.349776  7.286787  0.010148  36.757315  10.763937  3.681986  9.275169  -38.964601  -3.311271  -22.499374  -9.055346  22.111198  31.815537  17.875981  8.592863  -1.66561  4.975798  -0.13867  -0.585532  13.603353  -0.257069  -1.62117  13.603353  -0.257069  -1.621171  13.331507  22.425457  13.656617  -173.37463  25.544263  179.833212  -2.646961  30.204788  105.160291  81.798124  -46.067826  -29.761757  7.713383  4.578169  18.37683  -179.381946  56.101411  155.228509  -43.036309  5.831008  -123.689199  94.148463  31.715384  17.77961  -25.028494  -2.289384  2.852512  -18.758699  -1.837658  2.049294  
0.0  93.25843  0.0  -3.609767  12.430643  -87.195573  -15.022658  -21.911423  -23.317943  7.126291  0.058683  36.118621  10.728233  3.600085  9.135671  -38.025836  -3.130036  -21.889861  -8.859474  21.960394  31.458213  17.68825  8.465293  -1.694151  4.882644  -0.209263  -0.518186  13.35021  -0.464981  -1.451933  13.350209  -0.464981  -1.451932  13.260832  22.528206  13.608295  -173.78413  25.225474  179.66173  -2.767502  29.283634  105.200956  82.315019  -44.493719  -30.421777  7.368492  4.306964  18.338955  -179.79738  57.878764  154.741534  -44.092357  6.341362  -123.212802  92.550488  31.657116  17.595789  -24.664618  -2.283918  2.792758  -18.48606  -1.829318  2.005872  
